# xmcd
#
# Track frame offsets:
#	150
#	10724
#	26647
#	38579
#	48275
#	60728
#	69645
#	81318
#	94053
#	102351
#	109218
#	119242
#
# Disc length: 1789 seconds
#
# Revision: 0
# Processed by: cddbd v1.5.2PL0 Copyright (c) Steve Scherf et al.
# Submitted via: EasyCDDAExtractor 10.0.3.1
#
DISCID=9f06fb0c
DTITLE=Various Artist - Orginal Outlaw
DYEAR=2007
DGENRE=Country
TTITLE0=Willie Nelson - Blue Eyes Crying In The Rain
TTITLE1=Willie Nelson, Merle Hagard - Reasons To Quit
TTITLE2=Willie Nelson, Ernest Tubb - Waltz Across Texas
TTITLE3=Willie Nelson - Lets Pretend
TTITLE4=Willie Nelson - Half A Man
TTITLE5=Willie Nelson - Why Are You Picking On Me
TTITLE6=Willie Nelson - Last Letter
TTITLE7=Willie Nelson - I JUst Don't Understand
TTITLE8=Willie Nelson - You Wouldn't Cross the Street To Say Goodbye
TTITLE9=Willie Nelson - Both Ends Of The Candle
TTITLE10=Willie Nelson - I Didn't Sleep A Wink
TTITLE11=Willie Nelson - Face Of A fighter
EXTD=
EXTT0=
EXTT1=
EXTT2=
EXTT3=
EXTT4=
EXTT5=
EXTT6=
EXTT7=
EXTT8=
EXTT9=
EXTT10=
EXTT11=
PLAYORDER=
